<svg xmlns="http://www.w3.org/2000/svg" width="1104" height="713" viewBox="0 0 1104 713">
  <defs>
    <linearGradient id="bg" x1="0" y1="0" x2="1" y2="1">
      <stop offset="0" stop-color="#0b1430"/>
      <stop offset="1" stop-color="#070a12"/>
    </linearGradient>
    <radialGradient id="glow" cx="35%" cy="30%" r="75%">
      <stop offset="0" stop-color="rgba(0,255,170,0.22)"/>
      <stop offset="1" stop-color="rgba(0,0,0,0)"/>
    </radialGradient>
    <filter id="soft" x="-10%" y="-10%" width="120%" height="120%">
      <feGaussianBlur stdDeviation="1.6"/>
    </filter>
  </defs>

  <rect width="1104" height="713" fill="url(#bg)"/>
  <rect width="1104" height="713" fill="url(#glow)"/>

  <g transform="translate(64,56)">
    <rect x="0" y="0" width="976" height="601" rx="22" fill="rgba(255,255,255,0.06)" stroke="rgba(0,255,170,0.18)"/>
    <rect x="0" y="0" width="976" height="96" fill="rgba(0,0,0,0.18)" stroke="rgba(255,255,255,0.08)"/>
    <text x="24" y="56" fill="rgba(255,255,255,0.88)" font-family="ui-monospace, SFMono-Regular, Menlo, Monaco, Consolas, 'Liberation Mono', 'Courier New', monospace" font-size="22">Pong</text>
    <text x="92" y="56" fill="rgba(255,255,255,0.55)" font-family="ui-monospace, SFMono-Regular, Menlo, Monaco, Consolas, 'Liberation Mono', 'Courier New', monospace" font-size="14">Traditional rules, 90s CRT vibe</text>

    <rect x="0" y="96" width="976" height="505" fill="rgba(0,0,0,0.30)"/>

    <!-- center dashed line -->
    <g opacity="0.55">
      <rect x="487" y="118" width="2" height="16" fill="rgba(255,255,255,0.35)"/>
      <rect x="487" y="150" width="2" height="16" fill="rgba(255,255,255,0.35)"/>
      <rect x="487" y="182" width="2" height="16" fill="rgba(255,255,255,0.35)"/>
      <rect x="487" y="214" width="2" height="16" fill="rgba(255,255,255,0.35)"/>
      <rect x="487" y="246" width="2" height="16" fill="rgba(255,255,255,0.35)"/>
      <rect x="487" y="278" width="2" height="16" fill="rgba(255,255,255,0.35)"/>
      <rect x="487" y="310" width="2" height="16" fill="rgba(255,255,255,0.35)"/>
      <rect x="487" y="342" width="2" height="16" fill="rgba(255,255,255,0.35)"/>
      <rect x="487" y="374" width="2" height="16" fill="rgba(255,255,255,0.35)"/>
      <rect x="487" y="406" width="2" height="16" fill="rgba(255,255,255,0.35)"/>
      <rect x="487" y="438" width="2" height="16" fill="rgba(255,255,255,0.35)"/>
      <rect x="487" y="470" width="2" height="16" fill="rgba(255,255,255,0.35)"/>
      <rect x="487" y="502" width="2" height="16" fill="rgba(255,255,255,0.35)"/>
      <rect x="487" y="534" width="2" height="16" fill="rgba(255,255,255,0.35)"/>
    </g>

    <!-- paddles + ball (placeholder) -->
    <rect x="22" y="290" width="14" height="110" rx="7" fill="rgba(255,255,255,0.72)" filter="url(#soft)"/>
    <rect x="940" y="250" width="14" height="110" rx="7" fill="rgba(255,255,255,0.72)" filter="url(#soft)"/>
    <circle cx="660" cy="330" r="8" fill="rgba(255,255,255,0.92)" filter="url(#soft)"/>

    <!-- score placeholders -->
    <text x="22" y="150" fill="rgba(255,255,255,0.62)" font-family="ui-monospace, SFMono-Regular, Menlo, Monaco, Consolas, 'Liberation Mono', 'Courier New', monospace" font-size="28">1</text>
    <text x="48" y="150" fill="rgba(255,255,255,0.42)" font-family="ui-monospace, SFMono-Regular, Menlo, Monaco, Consolas, 'Liberation Mono', 'Courier New', monospace" font-size="14">Left</text>
    <text x="930" y="150" fill="rgba(255,255,255,0.42)" font-family="ui-monospace, SFMono-Regular, Menlo, Monaco, Consolas, 'Liberation Mono', 'Courier New', monospace" font-size="14">Right</text>
    <text x="952" y="150" fill="rgba(255,255,255,0.62)" font-family="ui-monospace, SFMono-Regular, Menlo, Monaco, Consolas, 'Liberation Mono', 'Courier New', monospace" font-size="28">3</text>

    <!-- caption -->
    <g opacity="0.65">
      <rect x="320" y="538" width="336" height="40" rx="16" fill="rgba(0,0,0,0.35)" stroke="rgba(255,255,255,0.10)"/>
      <text x="352" y="564" fill="rgba(255,255,255,0.80)" font-family="ui-monospace, SFMono-Regular, Menlo, Monaco, Consolas, 'Liberation Mono', 'Courier New', monospace" font-size="14">Paused. Press P or Resume.</text>
    </g>
  </g>
</svg>
